<svg width="74" height="70" fill="none" xmlns="http://www.w3.org/2000/svg"><path d="M5.5 58.8v-.5H4.1c-1.9 0-3.6-1.66-3.6-3.8V51c0-2.15 1.6-3.8 3.6-3.8h65.8a3.5 3.5 0 0 1 3.4 3.76v3.54c0 2.15-1.6 3.8-3.6 3.8h-1.4v1.6c0 5.35-4.1 9.6-9.1 9.6H14.6c-5 0-9.1-4.35-9.1-9.6v-1.1Zm2.4-.5h-.5v1.6c0 4.05 3.2 7.5 7.2 7.5h44.7c4 0 7.2-3.34 7.2-7.5v-1.6H7.9Zm62-2c.46 0 .89-.23 1.19-.54.3-.32.51-.77.51-1.26v-.15a144.65 144.65 0 0 0-.04-2.82 8.06 8.06 0 0 0-.05-.6l-.01-.03c-.05-.89-.71-1.7-1.7-1.7H4c-.46 0-.89.23-1.19.54-.3.32-.51.77-.51 1.26v3.5c0 .92.67 1.8 1.7 1.8h65.9ZM15.9 38l-.3-.23-.3.23-5 3.87-5.52-4.18 1.14-1.67L10 39.1l.3.23.3-.23 5-3.87 5.1 3.87.3.23.3-.23 5-3.87 5 3.87.3.23.3-.23 5-3.87L42 39.1l.3.23.3-.23 5-3.87 5 3.87.3.23.3-.23 5.1-3.87 5 3.87.3.23.3-.23 4.08-3.08 1.14 1.67-5.52 4.18-5-3.87-.3-.23-.3.23-5.1 3.87-5-3.87-.3-.23-.3.23-5 3.87L37.2 38l-.3-.23-.3.23-5 3.87-5-3.87-.3-.23-.3.23-5 3.87L15.9 38ZM8 31h-.5v.1H5.54a16.1 16.1 0 0 1-.04-1.4V28.51C6.2 13.01 19.94.5 37 .5c16.96 0 30.7 12.51 31.4 27.91V29.6c0 .33-.02.63-.05.95v.04l-.03.41H8Zm58-2h.52l-.02-.52C65.89 13.98 52.83 2.5 37 2.5S8.11 14.07 7.5 28.48l-.02.52H66Z" fill="#81B3D2" stroke="#000"/><path d="M38.4 15.3c0 .85-.65 1.5-1.4 1.5-.75 0-1.4-.65-1.4-1.5s.65-1.5 1.4-1.5c.75 0 1.4.65 1.4 1.5ZM30.6 10.2c0 .85-.65 1.5-1.4 1.5-.75 0-1.4-.65-1.4-1.5s.65-1.5 1.4-1.5c.75 0 1.4.65 1.4 1.5ZM46.1 10.2c0 .85-.65 1.5-1.4 1.5-.75 0-1.4-.65-1.4-1.5s.65-1.5 1.4-1.5c.75 0 1.4.65 1.4 1.5Z" fill="#81B3D2" stroke="#000"/></svg>